Patient4_TMGait_0pt3_02_left_07_EMG.mot
version=1
nRows=23
nColumns=33
inDegrees=no
endheader
time	1LAddLong	2LGlutMax	3LGlutMed	4LIliopsoas	5LSemiMemb	6LBicFemLong	7LRecFem	8LVastMed	9LVastLat	10LGasMed	11LTibAnt	12lTibPost	13LPeroneusLong	14LSol	15LExtDigLong	16LFlexDigLong	17RAddLong	18RGlutMax	19RGlutMed	20RIliopsoas	21RSemiMemb	22RBicFemLong	23RRecFem	24RVastMed	25RVastLat	26RGasMed	27RTibAnt	28RTibPost	29RPeroneusLong	30RSol	31RExtDigLong	32RFlexDigLong
15.593	0.015259	-0.070343	-0.030365	0.025787	0.002899	-0.081024	0.014343	0.007629	-0.017395	-0.021667	-0.081177	-0.005188	0.044098	-0.029602	-0.019226	0.004425	0.036469	0.24857	0.39215	-0.2153	-0.042419	0.097504	0.027924	0.43579	0.1973	0.007324	0.019836	0.069122	-0.48614	0.12756	-0.000458	-0.003967
15.594	0.015717	-0.071869	-0.06546	0.005188	-0.00061	-0.079041	-0.016022	0.009918	-0.016479	-0.025635	-0.088196	0.002136	0.08667	-0.062103	-0.04776	0.009155	0.024109	0.20645	-0.15289	-0.075226	-0.13214	0.15381	-0.11887	0.38406	0.25406	0.009308	0.029602	0.090179	-0.31998	0.20996	-0.002594	-0.010376
15.595	0.012817	-0.035706	-0.029907	0.005951	0.000153	-0.071411	-0.057373	0.009155	-0.006256	-0.025482	-0.023651	0.00061	0.040894	-0.061646	0.19272	0.014191	0.006256	0.20233	-0.89569	-0.030365	-0.168	0.058136	-0.17639	0.3775	0.36346	-0.000458	0.052795	0.11078	-0.28229	0.007935	-0.004272	-0.009308
15.596	0.013123	-0.076752	-0.024109	-0.012207	-0.001221	-0.064545	-0.070953	0.018768	-0.004578	-0.023651	0.056152	-0.009918	0.036926	-0.14618	-0.028839	0.001526	0.021973	0.087585	-0.79422	0.004578	-0.1152	0.031586	0.022888	-0.052032	0.29007	-0.004578	0.005646	0.061951	-0.6073	0.29907	-0.003967	-0.007629
15.597	0.00824	-0.064545	-0.040588	-0.011902	0.00061	-0.065002	-0.077667	0.00412	0.001068	-0.011292	-0.014343	-0.001984	0.050049	-0.12344	-0.17563	0.005646	0.024261	0.087433	-0.21622	0.062561	-0.18524	0.17136	0.31052	-0.10407	0.10757	-0.006866	0.057373	0.010834	-0.36179	0.29877	-0.00351	-0.011902
15.598	0.016937	-0.095673	-0.029449	-0.018616	0.001831	-0.082245	-0.042877	0.010223	-0.002441	0.006866	-0.00885	0.001678	-0.020142	-0.032654	-0.49316	0.014343	0.024719	0.074005	0.28122	0.029297	-0.093384	0.21881	0.39703	-0.18585	-0.020752	-0.011444	0.08606	-0.02121	-0.36941	0.084839	-0.002136	-0.014648
15.599	0.012665	-0.06958	0.018463	-0.012512	-0.001678	-0.072784	0.004883	0.014191	-0.01709	0.004425	0.016479	-0.004425	-0.051575	-0.062256	-0.099182	0.007935	-0.000153	0.11154	-0.47669	-0.010834	0.13931	0.19104	0.29327	-0.12436	-0.089111	-0.016785	0.13092	-0.030823	0.20248	0.077209	-0.002594	-0.009766
15.6	0.013428	-0.067139	0.062256	-0.014343	-0.003357	-0.069275	-0.017548	0.004578	-0.010529	0.005035	-0.011749	0.005646	-0.009308	-0.041656	-0.063171	0.00946	-0.014343	0.10468	-0.079346	-0.03891	0.13534	0.076294	0.26398	-0.078888	-0.025177	-0.007935	0.066833	-0.041656	0.34576	0.09903	-0.010071	-0.005798
15.601	0.011597	-0.068054	0.046234	-0.02121	-0.000153	-0.069885	0.037079	0.011139	-0.020447	-0.001831	-0.028229	-0.001068	0.032654	-0.009308	0.1265	0.004883	-0.012817	0.086212	-0.23377	-0.006714	0.077972	-0.06897	0.090485	-0.21668	0.007324	0.000305	-0.089569	-0.043793	1.5439	0.067749	-0.002289	-0.001984
15.602	0.006866	-0.085297	0.019836	-0.015869	-0.006409	-0.059509	0.046844	0.002136	-0.021515	-0.000305	-0.031128	-0.001373	0.041504	-0.019531	0.070496	0.00412	-0.044403	0.069885	-0.70725	0.090942	0.1033	-0.14587	-0.13443	-0.31708	0.025635	0.000763	-0.087128	-0.05249	0.77835	-0.12589	0	0.000458
15.603	0.021362	-0.068054	-0.042725	-0.005493	-0.004272	-0.049438	0.007629	0.010529	-0.019379	-0.006409	0.046844	-0.002594	0.043335	-0.00824	0.15488	0.009003	-0.035706	0.088959	-1.4343	0.14069	0.16739	-0.33005	-0.29785	-0.20416	0.0914	0.004272	0.014038	-0.013428	-1.4903	-0.34225	-0.007782	-0.003662
15.604	0.001221	-0.041199	-0.033112	0.001526	-0.003357	-0.036621	-0.044098	0.006561	-0.012665	-0.003052	0.082703	-0.010376	-0.007935	0.023041	0.26672	0.011749	-0.017242	0.14832	-0.66681	0.059052	0.088348	-0.31677	-0.29511	-0.19547	0.031738	-0.009003	-0.004272	0.004425	-0.42313	-0.12482	-0.000458	0.002899
15.605	0.009155	-0.048523	-0.088959	0.012207	-0.003662	-0.035706	-0.046844	0.011902	-0.012054	-0.002747	0.067139	-0.002136	-0.013275	0.001678	0.2684	0.009918	0.033875	0.089417	1.2282	-0.015717	-0.06073	-0.15991	-0.11643	-0.36835	-0.038605	-0.027008	-0.002899	-0.028992	-0.52933	0.31448	-0.002441	-0.001984
15.606	0.011902	-0.050812	-0.087891	-0.004883	0.001068	-0.039978	-0.043182	0.015411	-0.011749	-0.011597	0.039368	-0.003662	0.008392	-0.015564	-0.17029	0.005951	0.046844	0.016479	0.024414	0.04303	-0.06012	-0.092316	-0.087433	-0.28366	-0.032806	-0.036774	-0.001831	-0.03952	-0.63553	0.35614	-0.002289	-0.000916
15.607	0.011444	-0.046082	0.039673	-0.007172	-0.006561	-0.03952	-0.023041	0.009155	-0.021515	-0.015869	-0.062408	-0.00412	0.058136	-0.014191	-0.26215	0.005493	0.027618	0.1326	-0.79269	0.050964	-0.055847	-0.011749	-0.19424	-0.13763	0.079041	-0.006104	0.006256	-0.03067	0.26916	-0.15869	-0.003052	-0.006561
15.608	0.006561	-0.052643	0.12589	0.023193	-0.00412	-0.043182	-0.066376	0.006409	-0.021057	-0.005798	0.026245	-0.001678	0.033112	0.023804	-0.20447	0.000916	0.026398	0.19318	-0.33707	-0.092163	-0.15549	-0.008392	0.005035	0.15915	0.24185	0.021057	-0.031891	-0.019684	-0.19638	-0.44754	-0.004578	-0.00946
15.609	0.015106	-0.06073	0.13001	0.033417	0.002136	-0.030823	-0.12909	0.010376	-0.033722	-0.001221	0.15778	-0.002289	-0.0177	0.029755	-0.11231	-0.005798	0.046997	0.2211	0.89172	-0.14069	-0.18387	-0.0914	0.32944	0.40085	0.44128	0.021362	-0.00946	-0.016022	-0.71823	-0.68787	-0.004425	-0.010529
15.61	0.018005	-0.032806	0.13397	-0.005493	-0.007477	-0.04837	-0.14038	0.004883	-0.036011	-0.033264	0.044708	0.000305	0.009766	0.053406	-0.11597	-0.001068	0.052795	0.12863	1.0976	-0.17532	-0.14084	-0.18433	0.43076	0.62317	0.44311	-0.001221	0.034943	-0.015717	-0.31189	-0.40817	-0.000305	-0.004272
15.611	0.012512	-0.023956	0.088654	-0.016327	-0.007477	-0.050354	-0.10025	0.005646	-0.034027	-0.047302	-0.083008	-0.000153	0.058746	-0.015106	0.008392	0.018463	0.029449	0.10407	0.89859	-0.06958	0.032349	-0.26962	0.36713	0.33615	0.44495	-0.042877	0.063324	-0.10651	0.21866	0.16876	-0.004272	-0.005035
15.612	0.014038	-0.046692	0.064545	-0.02533	-0.006561	-0.044403	-0.056305	0.004272	-0.032043	-0.038605	-0.20126	-0.002289	0.093231	-0.031891	0.060577	0.013885	0.009155	0.094299	0.21316	0.084534	-0.029144	-0.20325	-0.04776	-0.019531	0.51041	-0.024872	-0.088196	-0.14313	1.2135	0.49164	-0.001831	-0.006409
15.613	0.008698	-0.050201	0.054321	-0.001831	-0.013275	-0.044098	-0.058136	0.005188	-0.0383	-0.026855	-0.025635	0.002594	0.028687	-0.010071	0.092926	-0.001526	-0.010376	0.051575	0.62698	0.12772	-0.047607	-0.079956	-0.29037	-0.1767	0.50079	-0.000153	-0.10788	0.2446	0.073853	0.34347	-0.009003	-0.005341
15.614	0.012054	-0.038757	0.019836	0.016327	-0.006256	-0.047607	-0.083008	0.011292	-0.02655	-0.0177	0.018768	-0.001373	-0.000916	-0.081024	0.013885	-0.009003	-0.000763	0.058289	0.42725	0.11032	-0.062866	-0.039368	-0.63568	-0.29114	0.44388	0.029449	-0.067902	0.055084	0.16357	0.30151	-0.004578	-0.012207
15.615	0.009155	-0.028839	0.014038	0.024414	-0.007935	-0.05188	-0.09613	0.000916	-0.023193	-0.016937	-0.013733	-0.004425	0.024872	-0.089264	0.22217	-0.001831	-0.016937	0.064087	0.14618	0.033417	-0.012207	0.10544	-0.67947	-0.20691	0.45319	0.015411	-0.06897	-0.22476	0.3392	0.066833	-0.003357	-0.008545
